<svg width="14" height="12" viewBox="0 0 14 12" fill="none" xmlns="http://www.w3.org/2000/svg">
<path d="M8.49362 10.9937L12.8686 6.61874C12.95 6.53755 13.0145 6.44112 13.0585 6.33497C13.1025 6.22882 13.1252 6.11503 13.1252 6.00011C13.1252 5.8852 13.1025 5.77141 13.0585 5.66526C13.0145 5.5591 12.95 5.46268 12.8686 5.38149L8.49362 1.00649C8.41239 0.925248 8.31594 0.860806 8.2098 0.81684C8.10365 0.772873 7.98989 0.750244 7.875 0.750244C7.76011 0.750244 7.64635 0.772873 7.5402 0.81684C7.43406 0.860806 7.33761 0.925248 7.25638 1.00649C7.09231 1.17056 7.00013 1.39308 7.00013 1.62511C7.00013 1.85714 7.09231 2.07967 7.25638 2.24374L10.1378 5.12511H1.75C1.51794 5.12511 1.29538 5.2173 1.13128 5.38139C0.967187 5.54549 0.875 5.76805 0.875 6.00011C0.875 6.23218 0.967187 6.45474 1.13128 6.61883C1.29538 6.78292 1.51794 6.87511 1.75 6.87511H10.1378L7.25638 9.75649C7.17484 9.83756 7.11013 9.93395 7.06598 10.0401C7.02182 10.1463 6.99909 10.2601 6.99909 10.3751C6.99909 10.4901 7.02182 10.6039 7.06598 10.7101C7.11013 10.8163 7.17484 10.9127 7.25638 10.9937C7.33756 11.0751 7.43399 11.1396 7.54014 11.1836C7.64629 11.2276 7.76008 11.2503 7.875 11.2503C7.98992 11.2503 8.10371 11.2276 8.20986 11.1836C8.31601 11.1396 8.41244 11.0751 8.49362 10.9937Z" fill="white"/>
</svg>
